# xmcd
#
# Track frame offsets: 
#        150
#        15825
#        33225
#        52875
#        65625
#        82163
#        100388
#        120863
#        135750
#        147413
#        161213
#        170963
#        183938
#
# Disc length: 2660 seconds
#
# Revision: 0
# Processed by: cddbd v1.5.2PL0 Copyright (c) Steve Scherf et al.
# Submitted via: ExactAudioCopy v0.99pb4
#
DISCID=a80a620d
DTITLE=lilingyu - wuyedejietou
DYEAR=1990
DGENRE=Classical
TTITLE0=不在意
TTITLE1=午夜的街头
TTITLE2=信天游
TTITLE3=来去匆匆
TTITLE4=难忘的一段情
TTITLE5=成长的岁月
TTITLE6=爱在荒原
TTITLE7=离别的情语
TTITLE8=鸡园
TTITLE9=洋派的中国男孩
TTITLE10=跨开大步
TTITLE11=江南音诗
TTITLE12=你的背影
EXTD=
EXTT0=
EXTT1=
EXTT2=
EXTT3=
EXTT4=
EXTT5=
EXTT6=
EXTT7=
EXTT8=
EXTT9=
EXTT10=
EXTT11=
EXTT12=
PLAYORDER=
